{"title":"Rocky Planetesimal - Go right","uid":7322797,"size":118075459,"categoryP":"video","categoryS":"other","magnet":"?xt=urn:btih:63a3bc0086527090d9e61b0062e943f0596947ce&amp;dn=Rocky+Planetesimal+-+Go+right&amp;tr=udp%3A%2F%2Ftracker.openbittorrent.com%3A80&amp;tr=udp%3A%2F%2Fopen.demonii.com%3A1337&amp;tr=udp%3A%2F%2Ftracker.coppersurfer.tk%3A6969&amp;tr=udp%3A%2F%2Fexodus.desync.com%3A6969","seeders":0,"leechers":0,"uploader":null,"files":-1,"time":1338668588,"description":"Video: Rocky Planetesimal - Go right\nMusic: Michael Nyman - A Wild And Distant Shore\n\nDuration: 00:02:41.20, start: 0.000000, bitrate: 5857 kb/s\nStream #0.0(und): Video: h264, yuv420p, 1920x1080, 23.98 tb(r)\nStream #0.1(und): Audio: aac, 44100 Hz, stereo, s16","torrent":{"xt":"urn:btih:63a3bc0086527090d9e61b0062e943f0596947ce","amp;dn":"Rocky+Planetesimal+-+Go+right","amp;tr":["udp%3A%2F%2Ftracker.openbittorrent.com%3A80","udp%3A%2F%2Fopen.demonii.com%3A1337","udp%3A%2F%2Ftracker.coppersurfer.tk%3A6969","udp%3A%2F%2Fexodus.desync.com%3A6969"],"infoHash":"63a3bc0086527090d9e61b0062e943f0596947ce","infoHashBuffer":{"type":"Buffer","data":[99,163,188,0,134,82,112,144,217,230,27,0,98,233,67,240,89,105,71,206]},"announce":[],"urlList":[]}}